<svg width="234" height="396" viewBox="0 0 234 396" fill="none" xmlns="http://www.w3.org/2000/svg">
<path d="M70.1898 58.8465C70.1898 78.1582 54.5322 93.8158 35.2205 93.8158C15.9088 93.8158 0.25119 78.1582 0.25119 58.8465C0.25119 39.5349 15.9088 23.8772 35.2205 23.8772C54.5322 23.8772 70.1898 39.5349 70.1898 58.8465Z" fill="white"/>
<path d="M116.817 23.8772C116.817 36.7517 106.376 47.1887 93.5013 47.1887C80.6268 47.1887 70.1898 36.7517 70.1898 23.8772C70.1898 11.0028 80.6268 0.565765 93.5013 0.565765C106.376 0.565765 116.817 11.0028 116.817 23.8772Z" fill="white"/>
<path d="M163.44 23.8772C163.44 36.7517 153.003 47.1887 140.128 47.1887C127.254 47.1887 116.817 36.7517 116.817 23.8772C116.817 11.0028 127.254 0.565765 140.128 0.565765C153.003 0.565765 163.44 11.0028 163.44 23.8772V23.8772Z" fill="white"/>
<path d="M210.067 47.1887C210.067 60.0674 199.63 70.5044 186.756 70.5044C173.877 70.5044 163.44 60.0674 163.44 47.1887C163.44 34.3142 173.877 23.8772 186.756 23.8772C199.63 23.8772 210.067 34.3142 210.067 47.1887Z" fill="white"/>
<path d="M233.378 82.158C233.378 88.5952 228.162 93.8158 221.725 93.8158C215.283 93.8158 210.067 88.5952 210.067 82.158C210.067 75.7207 215.283 70.5044 221.725 70.5044C228.162 70.5044 233.378 75.7207 233.378 82.158Z" fill="white"/>
<path d="M116.808 248.813V246.943C116.779 234.568 110.222 223.124 99.5628 216.832C68.4866 198.322 46.9894 167.272 46.9894 135.589C46.9894 91.3699 97.1126 66.8888 138.908 72.071C303.185 104.022 218.361 327.374 146.314 380.656C116.352 402.811 74.7702 402.909 54.4383 368.14C44.2488 350.348 44.2147 328.493 54.3572 310.671C61.853 297.416 74.2067 287.59 88.81 283.266C104.783 278.604 116.808 265.521 116.808 248.813V248.813Z" fill="white"/>
</svg>
