<svg xmlns="http://www.w3.org/2000/svg" width="63" height="63" viewBox="0 0 63 63"><g><g><path fill="none" stroke="#fff" stroke-linecap="round" stroke-linejoin="round" stroke-miterlimit="20" stroke-width="3" d="M47.938 31.303c0 9.145-7.413 16.558-16.557 16.558-9.144 0-16.557-7.413-16.557-16.558 0-9.144 7.413-16.557 16.557-16.557 9.144 0 16.557 7.413 16.557 16.557z"/></g><g><path fill="none" stroke="#fff" stroke-linecap="round" stroke-linejoin="round" stroke-miterlimit="20" stroke-width="3" d="M31.381 6.736V1.524"/></g><g><path fill="none" stroke="#fff" stroke-linecap="round" stroke-linejoin="round" stroke-miterlimit="20" stroke-width="3" d="M1.672 31.304h5.212"/></g><g><path fill="none" stroke="#fff" stroke-linecap="round" stroke-linejoin="round" stroke-miterlimit="20" stroke-width="3" d="M48.702 48.626l4.099 4.1"/></g><g><path fill="none" stroke="#fff" stroke-linecap="round" stroke-linejoin="round" stroke-miterlimit="20" stroke-width="3" d="M9.959 9.883l4.1 4.1"/></g><g><path fill="none" stroke="#fff" stroke-linecap="round" stroke-linejoin="round" stroke-miterlimit="20" stroke-width="3" d="M14.058 48.626l-4.1 4.1"/></g><g><path fill="none" stroke="#fff" stroke-linecap="round" stroke-linejoin="round" stroke-miterlimit="20" stroke-width="3" d="M52.8 9.884l-4.1 4.1"/></g><g><path fill="none" stroke="#fff" stroke-linecap="round" stroke-linejoin="round" stroke-miterlimit="20" stroke-width="3" d="M48.703 13.983l4.1-4.1"/></g><g><path fill="none" stroke="#fff" stroke-linecap="round" stroke-linejoin="round" stroke-miterlimit="20" stroke-width="3" d="M9.96 52.726l4.1-4.1"/></g><g><path fill="none" stroke="#fff" stroke-linecap="round" stroke-linejoin="round" stroke-miterlimit="20" stroke-width="3" d="M48.65 48.677l4.1 4.1"/></g><g><path fill="none" stroke="#fff" stroke-linecap="round" stroke-linejoin="round" stroke-miterlimit="20" stroke-width="3" d="M9.908 9.934l4.1 4.1"/></g><g><path fill="none" stroke="#fff" stroke-linecap="round" stroke-linejoin="round" stroke-miterlimit="20" stroke-width="3" d="M31.33 55.851v5.212"/></g><g><path fill="none" stroke="#fff" stroke-linecap="round" stroke-linejoin="round" stroke-miterlimit="20" stroke-width="3" d="M31.329 1.647v5.212"/></g><g><path fill="none" stroke="#fff" stroke-linecap="round" stroke-linejoin="round" stroke-miterlimit="20" stroke-width="3" d="M6.832 31.355H1.62"/></g><g><path fill="none" stroke="#fff" stroke-linecap="round" stroke-linejoin="round" stroke-miterlimit="20" stroke-width="3" d="M61.035 31.355h-5.213"/></g></g></svg>