<svg xmlns="http://www.w3.org/2000/svg" width="65" height="48" viewBox="0 0 65 48"><g><g><path fill="none" stroke="#fff" stroke-linecap="round" stroke-linejoin="round" stroke-miterlimit="20" stroke-width="3" d="M40.009 29.444a8.625 8.625 0 0 1-1.897 17.038H10.234c-4.763 0-8.624-3.388-8.624-8.152a8.624 8.624 0 0 1 6.622-8.389 6.943 6.943 0 0 1 11.462-7.151h0a10.753 10.753 0 0 1 9.794-6.314c5.937 0 10.75 4.813 10.75 10.75 0 .761-.23 2.22-.23 2.22v0-.002 0z"/></g><g><path fill="none" stroke="#fff" stroke-linecap="round" stroke-linejoin="round" stroke-miterlimit="20" stroke-width="3" d="M32.969 17.054a10.806 10.806 0 0 1 6.207-3.461c5.898-1.044 11.525 2.892 12.568 8.79.864 4.876-1.677 9.567-5.916 11.636"/></g><g><path fill="none" stroke="#fff" stroke-linecap="round" stroke-linejoin="round" stroke-miterlimit="20" stroke-width="3" d="M41.086 6.106l-.026-4.212"/></g><g><path fill="none" stroke="#fff" stroke-linecap="round" stroke-linejoin="round" stroke-miterlimit="20" stroke-width="3" d="M58.853 25.92l4.213-.027"/></g><g><path fill="none" stroke="#fff" stroke-linecap="round" stroke-linejoin="round" stroke-miterlimit="20" stroke-width="3" d="M54.516 11.473l2.96-2.997"/></g><g><path fill="none" stroke="#fff" stroke-linecap="round" stroke-linejoin="round" stroke-miterlimit="20" stroke-width="3" d="M26.607 11.473l-2.959-2.997"/></g><g><path fill="none" stroke="#fff" stroke-linecap="round" stroke-linejoin="round" stroke-miterlimit="20" stroke-width="3" d="M55.825 41.162l-2.96-2.997"/></g></g></svg>