<svg xmlns="http://www.w3.org/2000/svg" width="64" height="50" viewBox="0 0 64 50"><g><g><path fill="none" stroke="#fff" stroke-linecap="round" stroke-linejoin="round" stroke-miterlimit="20" stroke-width="3" d="M45.89 28.994c4.403.988 7.694 4.922 7.694 9.625 0 5.447-4.417 9.863-9.864 9.863H11.83c-5.447 0-9.863-3.875-9.863-9.323 0-4.66 3.232-8.565 7.575-9.597a7.94 7.94 0 0 1 13.111-8.179v-.001c1.933-4.26 6.222-7.221 11.203-7.221 6.79 0 12.297 5.505 12.297 12.296 0 .87-.263 2.539-.263 2.539v0-.002 0z"/></g><g><path fill="none" stroke="#fff" stroke-linecap="round" stroke-linejoin="round" stroke-miterlimit="20" stroke-width="3" d="M47.832 26.895c7.073 0 13.807-5.734 13.807-12.808 0-.06-.008-.117-.009-.177a9.502 9.502 0 0 1-7.383 3.513c-5.26 0-9.523-4.264-9.523-9.524 0-2.526.991-4.816 2.596-6.521-6.359.749-11.295 5.149-11.295 11.709"/></g></g></svg>