<svg xmlns="http://www.w3.org/2000/svg" width="65" height="44" viewBox="0 0 65 44"><g><g><path fill="none" stroke="#fff" stroke-linecap="round" stroke-linejoin="round" stroke-miterlimit="20" stroke-width="3" d="M53.982 19.556c5.18 1.163 9.052 5.79 9.052 11.322 0 6.409-5.196 11.604-11.605 11.604H13.915c-6.41 0-11.604-4.56-11.604-10.968 0-5.482 3.8-10.076 8.91-11.29a9.34 9.34 0 0 1 8.855-12.321 9.309 9.309 0 0 1 6.569 2.699V10.6c2.275-5.01 7.32-8.495 13.18-8.495 7.989 0 14.466 6.477 14.466 14.466 0 1.024-.31 2.986-.31 2.986v0-.002 0z"/></g></g></svg>