<svg width="86" height="51" viewBox="0 0 86 51" fill="none" xmlns="http://www.w3.org/2000/svg">
<path d="M74.671 26.451C79.851 27.614 83.723 32.241 83.723 37.773C83.723 44.182 78.527 49.377 72.118 49.377H34.604C28.194 49.377 23 44.817 23 38.409C23 32.927 26.8 28.333 31.91 27.119C31.4368 25.7139 31.3049 24.2163 31.5252 22.75C31.7455 21.2838 32.3118 19.8911 33.1771 18.6871C34.0424 17.4831 35.1819 16.5024 36.5013 15.8262C37.8208 15.1499 39.2823 14.7974 40.765 14.798C43.2253 14.7942 45.587 15.7646 47.334 17.497V17.495C49.609 12.485 54.654 9 60.514 9C68.503 9 74.98 15.477 74.98 23.466C74.98 24.49 74.67 26.452 74.67 26.452V26.45L74.671 26.451Z" stroke="white" stroke-width="3" stroke-miterlimit="20" stroke-linecap="round" stroke-linejoin="round"/>
<path d="M53.671 19.451C58.851 20.614 62.723 25.241 62.723 30.773C62.723 37.182 57.527 42.377 51.118 42.377H13.604C7.194 42.377 2 37.817 2 31.409C2 25.927 5.8 21.333 10.91 20.119C10.4368 18.7139 10.3049 17.2163 10.5252 15.75C10.7455 14.2838 11.3118 12.8911 12.1771 11.6871C13.0424 10.4831 14.1819 9.50245 15.5013 8.82616C16.8208 8.14988 18.2823 7.79745 19.765 7.798C22.2253 7.79425 24.587 8.76461 26.334 10.497V10.495C28.609 5.485 33.654 2 39.514 2C47.503 2 53.98 8.477 53.98 16.466C53.98 17.49 53.67 19.452 53.67 19.452V19.45L53.671 19.451Z" fill="white" stroke="white" stroke-width="3" stroke-miterlimit="20" stroke-linecap="round" stroke-linejoin="round"/>
</svg>
