<svg xmlns="http://www.w3.org/2000/svg" width="65" height="66" viewBox="0 0 65 66"><g><g><path fill="none" stroke="#fff" stroke-linecap="round" stroke-linejoin="round" stroke-miterlimit="20" stroke-width="3" d="M53.981 19.629c5.181 1.162 9.052 5.79 9.052 11.322 0 6.408-5.196 11.604-11.605 11.604H13.914c-6.409 0-11.604-4.56-11.604-10.97 0-5.48 3.801-10.075 8.911-11.288a9.3 9.3 0 0 1-.486-2.981c0-5.158 4.182-9.34 9.341-9.34a9.311 9.311 0 0 1 6.568 2.698h.001c2.274-5.01 7.319-8.494 13.18-8.494 7.988 0 14.465 6.476 14.465 14.465 0 1.023-.309 2.986-.309 2.986v0-.002 0z"/></g><g><path fill="none" stroke="#fff" stroke-linecap="round" stroke-linejoin="round" stroke-miterlimit="20" stroke-width="3" d="M17.287 49.713l-1 7.082"/></g><g><path fill="none" stroke="#fff" stroke-linecap="round" stroke-linejoin="round" stroke-miterlimit="20" stroke-width="3" d="M27.662 49.713l-2 14.082"/></g><g><path fill="none" stroke="#fff" stroke-linecap="round" stroke-linejoin="round" stroke-miterlimit="20" stroke-width="3" d="M38.407 49.713l-2 14.082"/></g><g><path fill="none" stroke="#fff" stroke-linecap="round" stroke-linejoin="round" stroke-miterlimit="20" stroke-width="3" d="M48.782 49.713l-1 7.082"/></g></g></svg>