<svg xmlns="http://www.w3.org/2000/svg" width="62" height="62" viewBox="0 0 62 62"><g><g><path fill="none" stroke="#fff" stroke-linecap="round" stroke-linejoin="round" stroke-miterlimit="20" stroke-width="3" d="M51.879 18.486c4.997 1.12 8.73 5.584 8.73 10.919 0 6.18-5.011 11.19-11.191 11.19h-36.18c-6.18 0-11.191-4.396-11.191-10.577 0-5.287 3.666-9.717 8.594-10.888a9.009 9.009 0 0 1 8.541-11.882c2.468 0 4.707.993 6.334 2.603V9.85c2.193-4.832 7.058-8.193 12.71-8.193 7.705 0 13.952 6.246 13.952 13.95 0 .988-.3 2.88-.3 2.88v0-.001 0z"/></g><g><path fill="#fff" d="M17.564 47.632c3.446 3.446 3.585 7.077 3.585 7.077a3.585 3.585 0 0 1-7.17 0s.139-3.63 3.585-7.077z"/></g><g><path fill="#fff" d="M45.232 47.633c3.447 3.447 3.586 7.078 3.586 7.078a3.585 3.585 0 0 1-7.169 0s.138-3.63 3.583-7.078z"/></g><g><path fill="#fff" d="M31.398 50.996c3.447 3.446 3.585 7.077 3.585 7.077a3.584 3.584 0 1 1-7.168 0s.137-3.631 3.583-7.077z"/></g></g></svg>