<svg xmlns="http://www.w3.org/2000/svg" width="64" height="64" viewBox="0 0 64 64"><g><g><path fill="#fff" d="M27.781 43.24l-7.375 9.21 7.075.089-8.179 10.785 24.282-13.44-8.522-.044 4.511-6.6z"/></g><g><path fill="none" stroke="#fff" stroke-linecap="round" stroke-linejoin="round" stroke-miterlimit="20" d="M27.781 43.24v0l-7.375 9.21v0l7.075.089v0l-8.179 10.785v0l24.282-13.44v0l-8.522-.044v0l4.511-6.6v0H27.781v0z"/></g><g><path fill="none" stroke="#fff" stroke-linecap="round" stroke-linejoin="round" stroke-miterlimit="20" stroke-width="3" d="M53.531 19.13c5.155 1.157 9.007 5.762 9.007 11.266 0 6.377-5.17 11.546-11.546 11.546h-37.33c-6.377 0-11.547-4.536-11.547-10.913 0-5.455 3.783-10.026 8.867-11.234a9.288 9.288 0 0 1-.483-2.965 9.294 9.294 0 0 1 9.295-9.295 9.27 9.27 0 0 1 6.536 2.685v0c2.263-4.986 7.283-8.453 13.115-8.453 7.95 0 14.394 6.444 14.394 14.393 0 1.02-.308 2.972-.308 2.972v0-.002 0z"/></g></g></svg>