<svg xmlns="http://www.w3.org/2000/svg" width="62" height="55" viewBox="0 0 62 55"><g><g><path fill="none" stroke="#fff" stroke-linecap="round" stroke-linejoin="round" stroke-miterlimit="20" stroke-width="3" d="M12.583 41.232c-6.181 0-11.191-4.396-11.191-10.578 0-5.287 3.665-9.717 8.594-10.888a8.974 8.974 0 0 1-.468-2.873 9.008 9.008 0 0 1 15.341-6.406h.002c2.193-4.833 7.059-8.193 12.709-8.193 7.705 0 13.951 6.246 13.951 13.95 0 .988-.298 2.881-.298 2.881v0-.003c4.998 1.121 8.73 5.584 8.73 10.92 0 6.18-5.01 11.19-11.191 11.19"/></g><g><path fill="none" stroke="#fff" stroke-linecap="round" stroke-linejoin="round" stroke-miterlimit="20" stroke-width="2" d="M30.672 28.857v24.75"/></g><g><path fill="none" stroke="#fff" stroke-linecap="round" stroke-linejoin="round" stroke-miterlimit="20" stroke-width="2" d="M43.047 41.232h-24.75"/></g><g><path fill="none" stroke="#fff" stroke-linecap="round" stroke-linejoin="round" stroke-miterlimit="20" stroke-width="2" d="M20.297 37.65v0l3.584 3.582v0l-3.584 3.584v0"/></g><g><path fill="none" stroke="#fff" stroke-linecap="round" stroke-linejoin="round" stroke-miterlimit="20" stroke-width="2" d="M41.047 44.815v0l-3.583-3.583v0l3.583-3.584v0"/></g><g><path fill="none" stroke="#fff" stroke-linecap="round" stroke-linejoin="round" stroke-miterlimit="20" stroke-width="2" d="M27.089 51.607v0l3.583-3.583v0l3.584 3.583v0"/></g><g><path fill="none" stroke="#fff" stroke-linecap="round" stroke-linejoin="round" stroke-miterlimit="20" stroke-width="2" d="M34.256 30.857v0l-3.584 3.583v0l-3.583-3.583v0"/></g><g><path fill="none" stroke="#fff" stroke-linecap="round" stroke-linejoin="round" stroke-miterlimit="20" stroke-width="2" d="M39.423 32.482l-17.501 17.5"/></g><g><path fill="none" stroke="#fff" stroke-linecap="round" stroke-linejoin="round" stroke-miterlimit="20" stroke-width="2" d="M39.423 49.983L21.922 32.482"/></g></g></svg>