<svg width="20" height="40" viewBox="0 0 20 40" fill="none" xmlns="http://www.w3.org/2000/svg">
<path d="M10 34C12.2091 34 14 32.2091 14 30C14 27.7909 12.2091 26 10 26C7.79086 26 6 27.7909 6 30C6 32.2091 7.79086 34 10 34Z" fill="white"/>
<path d="M16.6666 22.5463V6.66664C16.6666 2.98477 13.6819 0 10 0C6.31813 0 3.33336 2.98477 3.33336 6.66664V22.5463C1.2875 24.3773 0 27.0384 0 30C0 35.5229 4.47719 40 10 40C15.5228 40 20 35.5229 20 30C20 27.0384 18.7125 24.3773 16.6666 22.5463ZM10 36.6666C6.31813 36.6666 3.33336 33.6819 3.33336 30C3.33336 28.0752 4.14906 26.2897 5.55641 25.0301L6.66672 24.0363V6.66664C6.66672 4.8257 8.15914 3.33328 10.0001 3.33328C11.841 3.33328 13.3334 4.82562 13.3334 6.66664V24.0363L14.4438 25.0301C15.8511 26.2897 16.6668 28.0752 16.6668 30C16.6666 33.6819 13.6819 36.6666 10 36.6666Z" fill="white"/>
<path d="M11 13H9V33H11V13Z" fill="white"/>
</svg>
