<svg width="512" height="462" viewBox="0 0 512 462" fill="none" xmlns="http://www.w3.org/2000/svg">
<path d="M256 132C187.075 132 131 188.075 131 257C131 325.925 187.075 382 256 382C324.925 382 381 325.925 381 257C381 188.075 324.925 132 256 132ZM256 342C209.131 342 171 303.869 171 257C171 210.131 209.131 172 256 172C302.869 172 341 210.131 341 257C341 303.869 302.869 342 256 342Z" fill="white"/>
<path d="M452 72H378.425C376.096 72 373.997 70.729 372.917 68.673L352.562 25.9C352.506 25.783 352.45 25.667 352.391 25.551C344.512 9.791 328.67 0 311.049 0H202.376C184.755 0 168.913 9.791 161.034 25.552C160.975 25.668 160.919 25.784 160.863 25.901L140.507 68.676C139.427 70.729 137.329 72 135 72H60C26.916 72 0 98.916 0 132V402C0 435.084 26.916 462 60 462H452C485.084 462 512 435.084 512 402V132C512 98.916 485.084 72 452 72ZM472 401.999C472 413.027 463.028 421.999 452 421.999H60C48.972 421.999 40 413.027 40 401.999V132C40 120.972 48.972 112 60 112H135C152.62 112 168.462 102.21 176.342 86.45C176.401 86.334 176.457 86.217 176.514 86.1L196.87 43.325C197.949 41.271 200.047 40 202.376 40H311.049C313.378 40 315.476 41.271 316.555 43.324L336.911 86.099C336.968 86.216 337.024 86.333 337.083 86.449C344.963 102.209 360.805 111.999 378.425 111.999H452C463.028 111.999 472 120.971 472 131.999V401.999Z" fill="white"/>
<path d="M432 152H392V192H432V152Z" fill="white"/>
</svg>
