<svg width="279" height="436" viewBox="0 0 279 436" fill="none" xmlns="http://www.w3.org/2000/svg">
<path d="M139.6 0C92.496 0 54.096 38.4 54.096 85.504V224.256C54.096 271.872 92.496 309.76 139.6 310.272C186.704 310.272 225.104 271.872 225.104 224.768V85.504C225.104 38.4 186.704 0 139.6 0Z" fill="white"/>
<path d="M278.864 224.768C278.864 216.064 272.208 209.408 263.504 209.408C254.8 209.408 248.144 216.064 248.144 224.768C248.144 284.672 199.504 333.312 139.6 333.312C79.696 333.312 31.056 284.672 31.056 224.768C31.056 216.064 24.4 209.408 15.696 209.408C6.992 209.408 0.335999 216.064 0.335999 224.768C0.335999 295.936 53.584 355.84 124.24 363.52V404.48H68.432C59.728 404.48 53.072 411.136 53.072 419.84C53.072 428.544 59.728 435.2 68.432 435.2H210.768C219.472 435.2 226.128 428.544 226.128 419.84C226.128 411.136 219.472 404.48 210.768 404.48H154.96V363.52C225.616 355.84 278.864 295.936 278.864 224.768Z" fill="white"/>
</svg>
